<?xml version="1.0" encoding="UTF-8"?>
<svg width="40px" height="40px" viewBox="0 0 40 40" version="1.1" xmlns="http://www.w3.org/2000/svg" xmlns:xlink="http://www.w3.org/1999/xlink">
    <title>restore</title>
    <g id="页面-1" stroke="none" stroke-width="1" fill="none" fill-rule="evenodd">
        <g id="iPhone-13-mini备份-8" transform="translate(-279.000000, -240.000000)">
            <g id="编组-11" transform="translate(20.000000, 216.000000)">
                <g id="编组-10" transform="translate(36.000000, 24.000000)">
                    <g id="编组-9" transform="translate(223.000000, 0.000000)">
                        <rect id="矩形" x="0" y="0" width="40" height="40"></rect>
                        <g id="编组-5" transform="translate(0.000000, 4.000000)">
                            <path d="M11.8856862,1.35885158 C14.5907244,-1.68431636 19.5826927,0.788493817 18.8008941,4.78435336 L17.4973235,11.4443069 L21.7270998,6.04878028 C24.3783673,2.66612868 29.7176934,5.27682367 28.7820505,9.37842944 L28.7343788,9.56877656 L28.1973235,11.5363069 L31.8753235,10.0163069 C34.8753235,9.01630693 38.8753235,8.01630693 39.3753235,8.51630693 C39.8753235,9.01630693 39.3753235,11.5163069 38.2037506,12.8447341 C33.879406,17.7311759 30.6032636,21.2883668 28.3753235,23.5163069 C27.2699303,24.6217001 25.5460727,26.0645092 23.2037506,27.8447341 C20.8018181,30.2466665 17.0517184,28.7228071 16.446516,25.8805823 L16.4273235,25.7783069 L13.5235472,29.4838336 C10.9708436,32.7407312 5.80716621,30.4479839 6.41634726,26.4403797 L6.44975287,26.2482605 L8.13832349,17.6153069 L7.37532349,18.5163069 C5.95657383,20.1124003 0.875323489,21.0163069 0.217868134,20.5059442 C-0.439587221,19.9955815 0.375323489,14.5163069 2.87532349,12.0163069 L11.8856862,1.35885158 Z" id="路径-7备份-2" fill="#6194F7" fill-rule="nonzero"></path>
                            <g id="编组-2备份" transform="translate(7.000000, 5.000000)" stroke="#000000" stroke-width="2">
                                <path d="M7.73523848,1 C8.78902704,1 9.76554752,1.5528965 10.3077173,2.45651273 L11.559902,4.54348727 C12.1020717,5.4471035 13.0785922,6 14.1323808,6 L20,6 C20.8284271,6 21.5784271,6.33578644 22.1213203,6.87867966 C22.6642136,7.42157288 23,8.17157288 23,9 L23,18 C23,18.8284271 22.6642136,19.5784271 22.1213203,20.1213203 C21.5784271,20.6642136 20.8284271,21 20,21 L4,21 C3.17157288,21 2.42157288,20.6642136 1.87867966,20.1213203 C1.33578644,19.5784271 1,18.8284271 1,18 L1,4 C1,3.17157288 1.33578644,2.42157288 1.87867966,1.87867966 C2.42157288,1.33578644 3.17157288,1 4,1 Z" id="矩形" fill="#FFFFFF"></path>
                                <g id="编组" transform="translate(11.750000, 12.250000) rotate(-270.000000) translate(-11.750000, -12.250000) translate(8.500000, 8.000000)" stroke-linecap="round" stroke-linejoin="round">
                                    <path d="M6.5,-2.51556829e-14 C4.1491726,0.587706849 2.5,2.69992821 2.5,5.12310563 L2.5,8.5 L2.5,8.5" id="路径-5"></path>
                                    <line x1="2.5" y1="8.5" x2="-1.16295862e-13" y2="6" id="路径-6"></line>
                                    <line x1="5" y1="8.5" x2="2.5" y2="6" id="路径-6备份" transform="translate(3.750000, 7.250000) scale(-1, 1) translate(-3.750000, -7.250000) "></line>
                                </g>
                            </g>
                        </g>
                    </g>
                </g>
            </g>
        </g>
    </g>
</svg>