<?xml version="1.0" encoding="UTF-8"?>
<svg width="24px" height="24px" viewBox="0 0 24 24" version="1.1" xmlns="http://www.w3.org/2000/svg" xmlns:xlink="http://www.w3.org/1999/xlink">
    <title>vip</title>
    <g id="页面-1" stroke="none" stroke-width="1" fill="none" fill-rule="evenodd">
        <g id="iPhone-13-mini备份-8" transform="translate(-46.000000, -184.000000)" fill-rule="nonzero">
            <g id="钻石@2x" transform="translate(46.000000, 184.000000)">
                <rect id="矩形" fill="#000000" opacity="0" x="0" y="0" width="24" height="24"></rect>
                <path d="M2.09334375,9.25333594 L6.42665625,4.86665625 C6.55137371,4.73941848 6.72183335,4.66739768 6.9,4.66666406 L17.1133359,4.66666406 C17.2914945,4.66740393 17.4619445,4.73942425 17.5866563,4.86665625 L21.9200156,9.25333594 C22.1616988,9.49802509 22.177576,9.88640793 21.9566719,10.1500078 L12.2566406,21.6966563 C12.1996525,21.7643351 12.1180953,21.8065805 12.0299378,21.8140848 C11.9417802,21.8215892 11.8542559,21.7937368 11.7866484,21.7366641 L11.7432891,21.6966563 L2.0566875,10.1500078 C1.83578963,9.886402 1.85167702,9.4980189 2.09336719,9.25333594 L2.09334375,9.25333594 Z" id="路径" fill="#FFD491"></path>
                <polygon id="路径" fill="#FFF4E2" points="12 4.66666406 7.33333594 9.66665625 16.6666406 9.66665625"></polygon>
                <polygon id="路径" fill="#FFE5BC" points="7.33333594 9.66665625 12 22.6666641 16.6666641 9.66665625 7.33335937 9.66665625"></polygon>
                <path d="M22.1123731,9.94378134 L12,22.6666563 L16.6666641,9.66665625 L22.1123731,9.94378134 Z M7.33333594,9.66665625 L1.98884585,10.0559503 L12,22.6666563 L7.33333594,9.66665625 Z" id="形状" fill="#FFA768"></path>
            </g>
        </g>
    </g>
</svg>