<?xml version="1.0" encoding="UTF-8"?>
<svg width="20px" height="20px" viewBox="0 0 20 20" version="1.1" xmlns="http://www.w3.org/2000/svg" xmlns:xlink="http://www.w3.org/1999/xlink">
    <title>icon/文件夹</title>
    <g id="页面-1" stroke="none" stroke-width="1" fill="none" fill-rule="evenodd">
        <g id="iPhone-13-mini备份-9" transform="translate(-40.000000, -436.000000)">
            <g id="编组-7" transform="translate(40.000000, 435.000000)">
                <g id="icon/文件夹" transform="translate(0.000000, 1.000000)">
                    <rect id="矩形" x="0" y="0" width="20" height="20"></rect>
                    <path d="M1.25,9.46882549 L1.25,15.0002776 C1.25,16.5342486 2.49352918,17.7777778 4.02750015,17.7777778 L15.9724998,17.7777778 C17.5064708,17.7777778 18.75,16.5342486 18.75,15.0002776 L18.75,9.46882549 C18.75,8.39493851 17.8794426,7.52438111 16.8055556,7.52438111 C16.3293311,7.52438111 15.869665,7.69914685 15.5137316,8.01553453 L11.291824,11.7683699 C10.5550995,12.4232411 9.44490048,12.4232411 8.70817596,11.7683699 L4.48626842,8.01553453 C3.68363798,7.30207982 2.45460814,7.37437102 1.74115342,8.17700145 C1.42476574,8.53293488 1.25,8.99260098 1.25,9.46882549 Z" id="路径" stroke="#FFFFFF" stroke-width="1.66666667" stroke-linejoin="round"></path>
                    <path d="M3.19444444,8.05555556 L3.19444444,4.05905594 C3.19444444,3.34312398 4.06500188,2.22216288 5.13888889,2.22216288 L14.8611111,2.22216288 C15.9349981,2.22216288 16.8055556,3.34312398 16.8055556,4.05905594 L16.8055556,8.05555556" id="路径" stroke="#FFFFFF" stroke-width="1.66666667"></path>
                    <line x1="6.59722222" y1="5.31159827" x2="13.4027778" y2="5.31159827" id="直线" stroke="#6194F7" stroke-width="1.66666667" stroke-linecap="round"></line>
                    <line x1="8.05555556" y1="8.05555556" x2="11.9444444" y2="8.05555556" id="直线备份" stroke="#6194F7" stroke-width="1.66666667" stroke-linecap="round"></line>
                </g>
            </g>
        </g>
    </g>
</svg>