<?xml version="1.0" encoding="UTF-8"?>
<svg width="20px" height="20px" viewBox="0 0 20 20" version="1.1" xmlns="http://www.w3.org/2000/svg" xmlns:xlink="http://www.w3.org/1999/xlink">
    <title>编组备份</title>
    <g id="页面-1" stroke="none" stroke-width="1" fill="none" fill-rule="evenodd">
        <g id="iPhone-13-mini备份-9" transform="translate(-40.000000, -369.000000)">
            <g id="编组备份" transform="translate(40.000000, 369.000000)">
                <rect id="矩形" x="0" y="0" width="20" height="20"></rect>
                <g id="icon/基础icon/点赞-2" transform="translate(1.666667, 1.666667)" stroke-width="1.66666667">
                    <g id="icon/基础icon/点赞">
                        <line x1="3.40277778" y1="5.43672014" x2="3.40277778" y2="16.1319073" id="直线-6" stroke="#6194F7" stroke-linecap="square"></line>
                        <path d="M1.96078431,5.20833333 L4.11764706,5.20833333 L4.11764706,5.20833333 L8.16504969,0.657682227 C8.53713226,0.239335422 9.07030317,-1.00737574e-15 9.6301777,0 L10.2941176,0 C10.9307712,-1.16951352e-16 11.4468808,0.516109641 11.4468808,1.15276315 C11.4468808,1.26370334 11.4308661,1.37406259 11.3993323,1.48042678 L10.2941176,5.20833333 L10.2941176,5.20833333 L15.1555035,5.20833333 C16.2384148,5.20833333 17.1162878,6.08620637 17.1162878,7.16911765 C17.1162878,7.28539169 17.1059453,7.4014353 17.0853826,7.51587667 L15.7311832,15.0526414 C15.5633284,15.986833 14.7504559,16.6666667 13.8013041,16.6666667 L1.96078431,16.6666667 C0.87787304,16.6666667 -1.55735414e-16,15.7887936 0,14.7058824 L0,7.16911765 C-6.13527595e-16,6.08620637 0.87787304,5.20833333 1.96078431,5.20833333 Z" id="矩形" stroke="#FFFFFF" stroke-linejoin="round"></path>
                    </g>
                </g>
            </g>
        </g>
    </g>
</svg>