<?xml version="1.0" encoding="UTF-8"?>
<svg width="40px" height="40px" viewBox="0 0 40 40" version="1.1" xmlns="http://www.w3.org/2000/svg" xmlns:xlink="http://www.w3.org/1999/xlink">
    <title>编组 6</title>
    <g id="页面-1" stroke="none" stroke-width="1" fill="none" fill-rule="evenodd">
        <g id="iPhone-13-mini备份-9" transform="translate(-56.000000, -240.000000)">
            <g id="编组-11" transform="translate(20.000000, 216.000000)">
                <g id="编组-6" transform="translate(36.000000, 24.000000)">
                    <rect id="矩形" x="0" y="0" width="40" height="40"></rect>
                    <g id="编组-3" transform="translate(0.000000, 4.000000)">
                        <path d="M11.8856862,1.35885158 C14.5907244,-1.68431636 19.5826927,0.788493817 18.8008941,4.78435336 L17.4973235,11.4443069 L21.7270998,6.04878028 C24.3783673,2.66612868 29.7176934,5.27682367 28.7820505,9.37842944 L28.7343788,9.56877656 L28.1973235,11.5363069 L31.8753235,10.0163069 C34.8753235,9.01630693 38.8753235,8.01630693 39.3753235,8.51630693 C39.8753235,9.01630693 39.3753235,11.5163069 38.2037506,12.8447341 C33.879406,17.7311759 30.6032636,21.2883668 28.3753235,23.5163069 C27.2699303,24.6217001 25.5460727,26.0645092 23.2037506,27.8447341 C20.8018181,30.2466665 17.0517184,28.7228071 16.446516,25.8805823 L16.4273235,25.7783069 L13.5235472,29.4838336 C10.9708436,32.7407312 5.80716621,30.4479839 6.41634726,26.4403797 L6.44975287,26.2482605 L8.13832349,17.6153069 L7.37532349,18.5163069 C5.95657383,20.1124003 0.875323489,21.0163069 0.217868134,20.5059442 C-0.439587221,19.9955815 0.375323489,14.5163069 2.87532349,12.0163069 L11.8856862,1.35885158 Z" id="路径-7" fill="#6194F7" fill-rule="nonzero" opacity="0.596795945"></path>
                        <g id="编组备份" transform="translate(7.000000, 4.000000)" stroke="#FFFFFF" stroke-width="2">
                            <circle id="椭圆形" fill="#434548" cx="12" cy="12" r="11"></circle>
                            <path d="M1.71554516,9.52460676 C3.02170629,11.1748689 4.28319123,12 5.5,12 C7.32521315,12 8,10.523929 10,12 C12,13.476071 14,15.5481728 12,17.3333281 C10,19.1184834 11.8257119,23.3614598 15.0347349,22.6807299" id="路径-3"></path>
                            <path d="M22,16.6666719 C19,16.806139 17.5,15.7789393 17.5,13.5850729 C17.5,10.2942733 19.4826325,9.31909914 16,7.42825296 C13.678245,6.16768884 12.7845777,4.12459796 13.3189982,1.29898031" id="路径-4"></path>
                        </g>
                    </g>
                </g>
            </g>
        </g>
    </g>
</svg>